HIERARCHY
ROOT Pelvis
{
	OFFSET 0.000000 0.000000 0.000000
	CHANNELS 6 Xposition Yposition Zposition Xrotation Yrotation Zrotation
	JOINT LeftUpLeg_virtual
	{
		OFFSET 0.000000 0.000000 0.000000
		CHANNELS 3 Xrotation Yrotation Zrotation
		JOINT LeftUpLeg
		{
			OFFSET 18.735201 -5.666702 -4.541200
			CHANNELS 3 Xrotation Yrotation Zrotation
			JOINT LeftLeg
			{
				OFFSET -0.021200 -31.938179 0.493100
				CHANNELS 3 Xrotation Yrotation Zrotation
				JOINT LeftFoot
				{
					OFFSET 0.021200 -31.938179 -4.336299
					CHANNELS 3 Xrotation Yrotation Zrotation
					JOINT LeftToeBase
					{
						OFFSET 0.943001 -26.722000 15.023500
						CHANNELS 3 Xrotation Yrotation Zrotation
						End Site
						{
							OFFSET 0 0 0
						}
					}
				}
			}
		}
	}
	JOINT RightUpLeg_virtual
	{
		OFFSET 0.000000 0.000000 0.000000
		CHANNELS 3 Xrotation Yrotation Zrotation
		JOINT RightUpLeg
		{
			OFFSET -18.735201 -5.666702 -4.541200
			CHANNELS 3 Xrotation Yrotation Zrotation
			JOINT RightLeg
			{
				OFFSET 0.018946 -31.938133 0.493100
				CHANNELS 3 Xrotation Yrotation Zrotation
				JOINT RightFoot
				{
					OFFSET -0.018946 -31.938126 -4.336299
					CHANNELS 3 Xrotation Yrotation Zrotation
					JOINT RightToeBase
					{
						OFFSET -0.943001 -26.722004 15.023500
						CHANNELS 3 Xrotation Yrotation Zrotation
						End Site
						{
							OFFSET 0 0 0
						}
					}
				}
			}
		}
	}
	JOINT Hips_virtual
	{
		OFFSET 0.000000 0.000000 0.000000
		CHANNELS 3 Xrotation Yrotation Zrotation
		JOINT Hips
		{
			OFFSET -0.000000 -0.000000 -0.000000
			CHANNELS 3 Xrotation Yrotation Zrotation
			JOINT Spine
			{
				OFFSET 0.000000 10.199997 -0.299500
				CHANNELS 3 Xrotation Yrotation Zrotation
				JOINT Spine1
				{
					OFFSET 0.000000 11.900002 -1.516600
					CHANNELS 3 Xrotation Yrotation Zrotation
					JOINT Spine2
					{
						OFFSET 0.000000 13.600006 -2.842500
						CHANNELS 3 Xrotation Yrotation Zrotation
						JOINT Neck_virtual
						{
							OFFSET 0.000000 0.000000 0.000000
							CHANNELS 3 Xrotation Yrotation Zrotation
							JOINT Neck
							{
								OFFSET 0.000000 9.624100 -2.890100
								CHANNELS 3 Xrotation Yrotation Zrotation
								JOINT Head
								{
									OFFSET 0.000000 14.068802 -1.351900
									CHANNELS 3 Xrotation Yrotation Zrotation
									End Site
									{
										OFFSET 0 0 0
									}
								}
							}
						}
						JOINT LeftShoulder_virtual
						{
							OFFSET 0.000000 0.000000 0.000000
							CHANNELS 3 Xrotation Yrotation Zrotation
							JOINT LeftShoulder
							{
								OFFSET 15.263000 10.923401 -0.547700
								CHANNELS 3 Xrotation Yrotation Zrotation
								JOINT LeftArm
								{
									OFFSET 25.438599 -2.830597 -13.032500
									CHANNELS 3 Xrotation Yrotation Zrotation
									JOINT LeftForeArm
									{
										OFFSET 29.960503 0.000000 0.000000
										CHANNELS 3 Xrotation Yrotation Zrotation
										JOINT LeftHand
										{
											OFFSET 27.849251 0.000000 0.000000
											CHANNELS 3 Xrotation Yrotation Zrotation
											End Site
											{
												OFFSET 0 0 0
											}
										}
									}
								}
							}
						}
						JOINT RightShoulder_virtual
						{
							OFFSET 0.000000 0.000000 0.000000
							CHANNELS 3 Xrotation Yrotation Zrotation
							JOINT RightShoulder
							{
								OFFSET -15.263000 10.923401 -0.547700
								CHANNELS 3 Xrotation Yrotation Zrotation
								JOINT RightArm
								{
									OFFSET -25.438599 -2.830597 -13.032500
									CHANNELS 3 Xrotation Yrotation Zrotation
									JOINT RightForeArm
									{
										OFFSET -29.960503 0.000000 0.000000
										CHANNELS 3 Xrotation Yrotation Zrotation
										JOINT RightHand
										{
											OFFSET -27.849251 0.000000 0.000000
											CHANNELS 3 Xrotation Yrotation Zrotation
											End Site
											{
												OFFSET 0 0 0
											}
										}
									}
								}
							}
						}
					}
				}
			}
		}
	}
}
MOTION
Frames: 5
Frame Time: 0.03333333
-2.764561 87.473495 1.258133 0.000000 0.000000 0.000000 0.105842 -43.970306 -1.991244 -41.694900 13.434863 17.507720 35.336305 -6.979025 4.545388 14.658643 -9.747027 -6.399177 0.000000 0.000000 0.000000 0.079532 -41.615127 -2.316188 -3.093600 -19.492933 -11.239151 28.150568 2.891310 -8.969096 -20.436729 -6.725318 27.592648 0.000000 0.000000 0.000000 -0.836113 -42.571008 -2.389433 2.075977 -0.129949 -0.584644 1.463755 5.129376 -1.151833 11.492032 8.829986 -2.521243 0.000000 0.000000 0.000000 10.924790 8.603498 -2.165568 -1.388136 0.216970 -0.168242 0.000000 0.000000 0.000000 10.687869 8.935144 -2.081330 2.230889 6.181328 -5.410035 -14.388601 -13.829334 -63.991803 9.690428 -43.005193 -0.629684 0.000000 0.000000 0.000000 11.462743 8.800903 -2.404374 0.454174 3.023392 7.873377 -2.577312 -14.448857 58.142252 1.998768 46.296501 2.946762 0.000000 0.000000 0.000000 
-2.963747 87.659546 1.644547 0.000000 0.000000 0.000000 1.207553 -43.325717 -1.667366 -41.233295 12.777663 17.232689 33.382410 -7.373484 4.780716 13.151488 -9.592103 -7.335702 0.000000 0.000000 0.000000 0.941174 -41.365340 -2.041336 -4.015888 -18.596066 -10.904842 30.050353 3.213384 -9.155565 -21.618128 -6.789276 28.932944 0.000000 0.000000 0.000000 0.168399 -42.146946 -2.215057 1.870406 -0.015946 -0.162200 1.757740 4.988519 -0.979210 11.549030 8.751106 -2.439268 0.000000 0.000000 0.000000 11.300435 8.519784 -2.104703 -1.280385 0.257162 -0.212594 0.000000 0.000000 0.000000 11.046585 8.846651 -2.117540 2.341406 6.504414 -5.222952 -12.588715 -13.045497 -63.131589 10.028805 -44.095319 -0.623840 0.000000 0.000000 0.000000 11.506393 8.682306 -2.367592 0.392316 3.553591 7.357267 -2.575004 -13.784085 58.867870 3.163470 47.418500 1.274484 0.000000 0.000000 0.000000 
-3.108181 87.210846 1.452995 0.000000 0.000000 0.000000 3.155664 -41.526563 -1.482443 -43.782052 12.248644 18.308594 32.868441 -6.942850 4.904240 12.369727 -9.916917 -7.600858 0.000000 0.000000 0.000000 2.710797 -40.134192 -1.909180 -6.361341 -18.151638 -9.957487 34.406897 3.149649 -9.750612 -23.460837 -7.091511 30.068596 0.000000 0.000000 0.000000 2.219375 -40.434443 -2.062060 1.441361 0.107832 0.073558 2.557617 4.773145 -0.797310 11.758228 8.438978 -2.303711 0.000000 0.000000 0.000000 11.667673 8.194613 -2.022681 -1.340430 0.291709 -0.211605 0.000000 0.000000 0.000000 11.553052 8.505974 -2.125354 2.469655 5.806495 -5.068732 -8.393900 -11.959286 -60.520660 10.792900 -47.836350 -0.324780 0.000000 0.000000 0.000000 11.736062 8.363353 -2.292626 0.495962 3.924402 6.092863 -0.946751 -12.381843 59.781388 6.027960 50.210192 -2.395868 0.000000 0.000000 0.000000 
-3.210599 86.161667 0.678528 0.000000 0.000000 0.000000 5.951845 -38.576574 -1.405625 -49.538283 11.577802 20.597600 34.211212 -5.805085 4.824418 12.711222 -10.869648 -7.413691 0.000000 0.000000 0.000000 5.348991 -37.651483 -1.893347 -10.393336 -18.188010 -8.612730 40.976736 2.557394 -10.930568 -25.578864 -7.578551 30.386818 0.000000 0.000000 0.000000 5.312054 -37.561785 -1.901164 1.154594 0.463060 -0.124194 3.695695 4.503393 -0.637558 12.106834 7.978400 -2.117606 0.000000 0.000000 0.000000 12.000542 7.743735 -1.923692 -1.534802 0.298456 -0.185449 0.000000 0.000000 0.000000 12.098524 8.026621 -2.090041 2.590730 4.198338 -4.831045 -2.950374 -10.398172 -57.192900 12.026923 -53.243374 0.439613 0.000000 0.000000 0.000000 12.073479 7.917636 -2.182173 0.737522 3.903719 4.482407 1.822246 -10.665335 60.674934 10.797525 53.745215 -8.126425 0.000000 0.000000 0.000000 
-3.229953 84.501831 -0.409115 0.000000 0.000000 0.000000 9.622362 -34.886817 -1.396768 -57.773196 9.890246 23.293788 37.411845 -4.545502 4.643026 13.524842 -12.641674 -7.355695 0.000000 0.000000 0.000000 8.831062 -34.030700 -1.984837 -15.594133 -18.440911 -6.811997 48.643702 1.496588 -12.719829 -27.933756 -7.994805 29.542959 0.000000 0.000000 0.000000 9.289446 -33.770559 -1.826151 1.136494 0.603313 -0.324069 4.946499 4.181230 -0.524539 12.495193 7.460331 -1.907134 0.000000 0.000000 0.000000 12.318069 7.278277 -1.799167 -1.850326 0.256835 -0.144359 0.000000 0.000000 0.000000 12.625302 7.545347 -1.988756 2.696151 2.030923 -4.315104 2.108704 -8.156292 -54.498810 13.817265 -59.046507 1.870439 0.000000 0.000000 0.000000 12.411928 7.463168 -2.035659 1.069494 3.297625 3.042397 4.469794 -8.826777 61.412027 17.222949 57.062774 -15.591075 0.000000 0.000000 0.000000 
